<svg width="74" height="20" viewBox="0 0 74 20" fill="none" xmlns="http://www.w3.org/2000/svg">
<path d="M70.2531 4.37671L70.2539 4.37789C71.2153 5.84483 71.5686 7.12413 71.4895 8.24146C71.4106 9.35526 70.8973 10.3758 69.9959 11.3198C68.1701 13.2318 64.8322 14.7447 60.7458 15.9118C53.1219 18.0892 43.206 18.9799 36.7324 19.2387C36.8199 19.1529 36.9133 19.0616 37.0124 18.9651C37.7687 18.229 38.8588 17.1903 40.192 15.9818C42.8599 13.5632 46.4943 10.4709 50.3714 7.76247C54.2584 5.0472 58.3466 2.74847 61.9276 1.87491C63.7141 1.43911 65.3405 1.36659 66.7398 1.74543C68.1256 2.12063 69.3217 2.94683 70.2531 4.37671Z" stroke="#969696" stroke-miterlimit="10"/>
<path d="M3.7469 4.37671L3.74613 4.37789C2.78471 5.84483 2.43139 7.12413 2.51049 8.24146C2.58935 9.35526 3.10269 10.3758 4.00411 11.3198C5.82991 13.2318 9.16783 14.7447 13.2542 15.9118C20.8781 18.0892 30.794 18.9799 37.2676 19.2387C37.1801 19.1529 37.0867 19.0616 36.9876 18.9651C36.2313 18.229 35.1412 17.1903 33.808 15.9818C31.1401 13.5632 27.5057 10.4709 23.6286 7.76247C19.7416 5.0472 15.6534 2.74847 12.0724 1.87491C10.2859 1.43911 8.65948 1.36659 7.26022 1.74543C5.8744 2.12063 4.67829 2.94683 3.7469 4.37671Z" stroke="#969696" stroke-miterlimit="10"/>
</svg>
