<svg xmlns="http://www.w3.org/2000/svg" width="30" viewBox="0 0 57 76"><defs><filter id="a" x="20" y="0" width="34" height="34" filterUnits="userSpaceOnUse"><feOffset dy="3" input="SourceAlpha"></feOffset><feGaussianBlur stdDeviation="3" result="b"></feGaussianBlur><feFlood flood-opacity="0.161"></feFlood><feComposite operator="in" in2="b"></feComposite><feComposite in="SourceGraphic"></feComposite></filter><filter id="c" x="24" y="30" width="27" height="27" filterUnits="userSpaceOnUse"><feOffset dy="3" input="SourceAlpha"></feOffset><feGaussianBlur stdDeviation="3" result="d"></feGaussianBlur><feFlood floodpacity="0.161"></feFlood><feComposite operator="in" in2="d"></feComposite><feComposite in="SourceGraphic"></feComposite></filter><filter id="e" x="0" y="48" width="28" height="28" filterUnits="userSpaceOnUse"><feOffset dy="3" input="SourceAlpha"></feOffset><feGaussianBlur stdDeviation="3" result="f"></feGaussianBlur><feFlood flood-opacity="0.161"></feFlood><feComposite operator="in" in2="f"></feComposite><feComposite in="SourceGraphic"></feComposite></filter><filter id="g" x="33" y="50" width="24" height="24" filterUnits="userSpaceOnUse"><feOffset dy="3" input="SourceAlpha"></feOffset><feGaussianBlur stdDeviation="3" result="h"></feGaussianBlur><feFlood flood-opacity="0.161"></feFlood><feComposite operator="in" in2="h"></feComposite><feComposite in="SourceGraphic"></feComposite></filter></defs><g transform="translate(-1717 -1141)"><g transform="matrix(1, 0, 0, 1, 1717, 1141)" filter="url(#a)"><rect width="16" height="16" rx="5" transform="translate(29 6)" fill="#343434" opacity="0.84"></rect></g><g transform="matrix(1, 0, 0, 1, 1717, 1141)" filter="url(#c)"><rect width="9" height="9" rx="3" transform="translate(33 36)" fill="#343434" opacity="0.7"></rect></g><g transform="matrix(1, 0, 0, 1, 1717, 1141)" filter="url(#e)"><rect width="10" height="10" rx="3" transform="translate(9 54)" fill="#343434" opacity="0.69"></rect></g><g transform="matrix(1, 0, 0, 1, 1717, 1141)" filter="url(#g)"><rect width="6" height="6" rx="2" transform="translate(42 56)" fill="#343434" opacity="0.39"></rect></g></g></svg>
