<svg xmlns="http://www.w3.org/2000/svg" width="16" viewBox="0 0 35.517 35.517"><path d="M17.305,0h.905a17.716,17.716,0,0,1,6.854,1.577A17.8,17.8,0,0,1,35.517,17.245v.963A17.815,17.815,0,0,1,21.5,35.118a18.726,18.726,0,0,1-3.289.4h-.9A17.8,17.8,0,0,1,0,18.213v-.965A18.139,18.139,0,0,1,.862,12.29,17.827,17.827,0,0,1,17.305,0m-.427,2.395A15.387,15.387,0,1,0,24.09,3.733,15.366,15.366,0,0,0,16.878,2.395Z" fill="#7C3AED"></path><path d="M238.929,103.557a1.182,1.182,0,0,1,2.363,0c.006,2.979,0,5.959,0,8.938q2.736,2.193,5.475,4.383a1.182,1.182,0,0,1-1.456,1.861c-1.9-1.514-3.8-3.038-5.7-4.554a1.355,1.355,0,0,1-.691-1.12Q238.926,108.309,238.929,103.557Z" transform="translate(-222.352 -95.301)" fill="#7C3AED"></path></svg>
